<svg xmlns="http://www.w3.org/2000/svg" viewBox="0 0 32 32" id="crm"><defs><linearGradient id="a" x1=".405" x2="30.583" y1="26.628" y2="1.44" gradientUnits="userSpaceOnUse"><stop offset="0" stop-color="#4c46c8"></stop><stop offset="1" stop-color="#87bfff"></stop></linearGradient></defs><path fill="url(#a)" d="M27 2H5a3 3 0 0 0-3 3v17a3 3 0 0 0 3 3h5.935a5.785 5.785 0 0 1-1.642 3.293A1 1 0 0 0 10 30h12a1 1 0 0 0 .707-1.707A5.785 5.785 0 0 1 21.065 25H27a3 3 0 0 0 3-3V5a3 3 0 0 0-3-3ZM5 4h22a1 1 0 0 1 1 1v13H4V5a1 1 0 0 1 1-1Zm15 24h-8a7.757 7.757 0 0 0 .953-3h6.086A7.757 7.757 0 0 0 20 28Zm7-5H5a1 1 0 0 1-1-1v-2h24v2a1 1 0 0 1-1 1ZM6 13V9a2 2 0 0 1 2-2h2a1 1 0 0 1 0 2H8v4h2a1 1 0 0 1 0 2H8a2 2 0 0 1-2-2Zm7 2a1 1 0 0 0 1-1v-1.586l2.293 2.293a1 1 0 0 0 1.414-1.414l-1.42-1.42A2.5 2.5 0 0 0 15.5 7H13a1 1 0 0 0-1 1v6a1 1 0 0 0 1 1Zm1-6h1.5a.5.5 0 0 1 0 1H14Zm5 5V8a1 1 0 0 1 1.769-.64L22.5 9.438l1.731-2.078A1 1 0 0 1 26 8v6a1 1 0 0 1-2 0v-3.238l-.731.878a1.036 1.036 0 0 1-1.538 0L21 10.762V14a1 1 0 0 1-2 0Z" data-name="Layer 2"></path></svg>